<?xml version="1.0" encoding="UTF-8" standalone="no"?>
<!DOCTYPE svg PUBLIC "-//W3C//DTD SVG 1.1//EN" "http://www.w3.org/Graphics/SVG/1.1/DTD/svg11.dtd">
<svg width="100%" height="100%" viewBox="0 0 80 80" version="1.1" xmlns="http://www.w3.org/2000/svg" xmlns:xlink="http://www.w3.org/1999/xlink" xml:space="preserve" xmlns:serif="http://www.serif.com/" style="fill-rule:evenodd;clip-rule:evenodd;stroke-linejoin:round;stroke-miterlimit:2;">
    <g transform="matrix(0.0836514,0,0,0.0848646,-5.23546,-32.8775)">
        <path d="M577.614,597.808L577.614,479.524C577.614,471.792 571.346,465.524 563.614,465.524L509.546,465.524C501.814,465.524 495.546,471.792 495.546,479.524L495.546,590.968L390.039,485.461C384.571,479.993 375.707,479.993 370.24,485.461L332.008,523.693C326.54,529.16 326.54,538.024 332.008,543.492L481.969,693.453C457.129,718.293 392.375,783.047 367.535,807.887L220.994,661.347C215.526,655.879 206.662,655.879 201.195,661.347L162.963,699.578C157.495,705.046 157.495,713.91 162.963,719.377L309.504,865.918L162.963,1012.46C157.495,1017.93 157.495,1026.79 162.963,1032.26L201.195,1070.49C206.662,1075.96 215.526,1075.96 220.994,1070.49L367.535,923.949C367.535,923.949 452.525,1008.94 481.969,1038.38L332.008,1188.35C326.54,1193.81 326.54,1202.68 332.008,1208.14L370.24,1246.38C375.707,1251.84 384.571,1251.84 390.039,1246.38L495.546,1140.87L495.546,1236.48C495.546,1244.21 501.814,1250.48 509.546,1250.48L563.614,1250.48C571.346,1250.48 577.614,1244.21 577.614,1236.48L577.614,1134.03L689.961,1246.38C695.429,1251.84 704.293,1251.84 709.76,1246.38L747.992,1208.14C753.46,1202.68 753.46,1193.81 747.992,1188.35C747.992,1188.35 632.908,1073.26 598.031,1038.38L712.465,923.949L859.006,1070.49C864.474,1075.96 873.338,1075.96 878.805,1070.49L917.037,1032.26C922.505,1026.79 922.505,1017.93 917.037,1012.46L770.496,865.918C804.879,831.536 917.037,719.377 917.037,719.377C922.505,713.91 922.505,705.046 917.037,699.578L878.805,661.347C873.338,655.879 864.474,655.879 859.006,661.347C859.006,661.347 746.848,773.505 712.465,807.887L598.031,693.453L747.992,543.492C753.46,538.024 753.46,529.16 747.992,523.693L709.76,485.461C704.293,479.993 695.429,479.993 689.961,485.461L577.614,597.808ZM549.614,631.607C549.614,637.27 553.025,642.375 558.256,644.542C563.487,646.709 569.509,645.511 573.513,641.507L699.861,515.159L718.294,533.592C683.416,568.47 568.332,683.553 568.332,683.553C562.865,689.021 562.865,697.885 568.332,703.352L702.566,837.586C708.033,843.053 716.898,843.053 722.365,837.586L868.906,691.045L887.339,709.478C852.956,743.861 740.798,856.019 740.798,856.019C735.331,861.486 735.331,870.35 740.798,875.818L887.339,1022.36L868.906,1040.79L722.365,894.251C716.898,888.783 708.033,888.783 702.566,894.251L568.332,1028.48C562.865,1033.95 562.865,1042.82 568.332,1048.28L718.294,1198.25L699.861,1216.68L573.513,1090.33C569.509,1086.33 563.487,1085.13 558.256,1087.3C553.025,1089.46 549.614,1094.57 549.614,1100.23L549.614,1222.48L523.546,1222.48L523.546,1107.07C523.546,1101.41 520.135,1096.3 514.903,1094.14C509.672,1091.97 503.65,1093.17 499.646,1097.17C499.646,1097.17 410.403,1186.41 380.139,1216.68L361.706,1198.25L511.668,1048.28C517.135,1042.82 517.135,1033.95 511.668,1028.48L377.434,894.251C371.967,888.783 363.102,888.783 357.635,894.251L211.094,1040.79L192.661,1022.36C227.044,987.976 339.202,875.818 339.202,875.818C344.669,870.35 344.669,861.486 339.202,856.019L192.661,709.478L211.094,691.045L357.635,837.586C363.102,843.053 371.967,843.053 377.434,837.586L511.668,703.352C517.135,697.885 517.135,689.021 511.668,683.553L361.706,533.592L380.139,515.159L499.646,634.666C503.65,638.67 509.672,639.868 514.903,637.701C520.135,635.534 523.546,630.429 523.546,624.767L523.546,493.524L549.614,493.524L549.614,631.607ZM549.614,976.538C549.614,982.201 553.025,987.306 558.256,989.473C563.487,991.64 569.509,990.442 573.513,986.438L684.133,875.818C689.6,870.35 689.6,861.486 684.133,856.019L573.513,745.399C569.509,741.395 563.487,740.197 558.256,742.364C553.025,744.531 549.614,749.636 549.614,755.298L549.614,976.538ZM395.867,856.019C390.4,861.486 390.4,870.35 395.867,875.818L499.646,979.597C503.65,983.601 509.672,984.799 514.903,982.632C520.135,980.465 523.546,975.36 523.546,969.697L523.546,762.139C523.546,756.477 520.135,751.372 514.903,749.205C509.672,747.038 503.65,748.236 499.646,752.24L395.867,856.019ZM577.614,942.739L577.614,789.097L654.435,865.918L577.614,942.739ZM425.565,865.918L495.546,795.938L495.546,935.898L425.565,865.918Z" style="fill:url(#_Linear1);"/>
    </g>
    <defs>
        <linearGradient id="_Linear1" x1="0" y1="0" x2="1" y2="0" gradientUnits="userSpaceOnUse" gradientTransform="matrix(572.589,539,-1145.7,1182.55,222.754,592.167)"><stop offset="0" style="stop-color:rgb(0,250,34);stop-opacity:1"/><stop offset="1" style="stop-color:rgb(187,253,69);stop-opacity:1"/></linearGradient>
    </defs>
</svg>
