<?xml version="1.0" encoding="UTF-8" standalone="no"?>
<!DOCTYPE svg PUBLIC "-//W3C//DTD SVG 1.1//EN" "http://www.w3.org/Graphics/SVG/1.1/DTD/svg11.dtd">
<svg width="100%" height="100%" viewBox="0 0 258 80" version="1.1" xmlns="http://www.w3.org/2000/svg" xmlns:xlink="http://www.w3.org/1999/xlink" xml:space="preserve" xmlns:serif="http://www.serif.com/" style="fill-rule:evenodd;clip-rule:evenodd;stroke-linejoin:round;stroke-miterlimit:2;">
    <path id="Nav_large_logo" d="M246.739,66.946C246.739,69.271 245.92,71.233 244.282,72.831C242.644,74.429 240.517,75.229 237.902,75.229C235.445,75.229 233.311,74.416 231.501,72.791C229.692,71.167 228.787,69.218 228.787,66.946L228.787,65.48L235.127,65.48L235.127,70.513C235.127,72.679 236.052,73.762 237.902,73.762C239.566,73.762 240.398,72.679 240.398,70.513L240.398,61.517C239.209,62.547 237.651,63.062 235.722,63.062C231.098,63.062 228.787,60.565 228.787,55.572L228.787,22.719L226.766,22.719L226.766,21.252L235.127,21.252L235.127,58.346C235.127,60.407 235.92,61.437 237.505,61.437C238.509,61.437 239.474,60.975 240.398,60.05L240.398,22.719L238.377,22.719L238.377,21.252L246.739,21.252L246.739,66.946ZM225.735,22.719L223.714,22.719L223.714,66.946C223.714,69.271 222.895,71.233 221.257,72.831C219.619,74.429 217.492,75.229 214.877,75.229C212.419,75.229 210.286,74.416 208.476,72.791C206.667,71.167 205.762,69.218 205.762,66.946L205.762,65.48L212.102,65.48L212.102,70.513C212.102,72.679 213.027,73.762 214.877,73.762C216.541,73.762 217.373,72.679 217.373,70.513L217.373,61.517C216.184,62.547 214.612,63.062 212.657,63.062C208.06,63.062 205.762,60.565 205.762,55.572L205.762,28.307C205.762,23.34 208.06,20.856 212.657,20.856C214.612,20.856 216.184,21.371 217.373,22.402L217.373,21.252L225.735,21.252L225.735,22.719ZM243.569,68.254L243.569,22.719L241.944,22.719L241.944,69.403C241.944,71.147 241.534,72.494 240.715,73.445C242.618,72.23 243.569,70.499 243.569,68.254ZM220.544,68.254L220.544,22.719L218.919,22.719L218.919,69.403C218.919,71.147 218.509,72.494 217.69,73.445C219.593,72.23 220.544,70.499 220.544,68.254ZM233.027,72.534C232.314,71.53 231.957,70.182 231.957,68.491L231.957,66.946L230.332,66.946L230.332,67.501C230.332,69.641 231.231,71.318 233.027,72.534ZM210.002,72.534C209.289,71.53 208.932,70.182 208.932,68.491L208.932,66.946L207.307,66.946L207.307,67.501C207.307,69.641 208.205,71.318 210.002,72.534ZM180.438,55.572C180.438,57.897 179.573,59.859 177.842,61.457C176.112,63.056 173.925,63.855 171.283,63.855C168.641,63.855 166.449,63.056 164.705,61.457C162.961,59.859 162.089,57.897 162.089,55.572L162.089,29.139C162.089,26.814 162.961,24.852 164.705,23.254C166.449,21.655 168.641,20.856 171.283,20.856C173.925,20.856 176.112,21.655 177.842,23.254C179.573,24.852 180.438,26.814 180.438,29.139L180.438,43.009L168.43,43.009L168.43,59.139C168.43,61.305 169.381,62.388 171.283,62.388C173.159,62.388 174.097,61.305 174.097,59.139L174.097,50.539L180.438,50.539L180.438,55.572ZM56.475,63.458L48.113,63.458L48.113,62.309C46.924,63.34 45.366,63.855 43.437,63.855C38.813,63.855 36.502,61.371 36.502,56.404L36.502,22.719L34.481,22.719L34.481,21.252L42.843,21.252L42.843,59.139C42.843,61.2 43.635,62.23 45.22,62.23C46.224,62.23 47.189,61.768 48.113,60.843L48.113,22.719L46.092,22.719L46.092,21.252L54.454,21.252L54.454,61.992L56.475,61.992L56.475,63.458ZM31.627,55.176C31.627,57.448 30.676,59.396 28.774,61.021C26.872,62.646 24.573,63.458 21.878,63.458L10.544,63.458L10.544,61.992L12.565,61.992L12.565,8.095L10.544,8.095L10.544,6.629L21.878,6.629C24.573,6.629 26.872,7.441 28.774,9.066C30.676,10.691 31.627,12.64 31.627,14.912L31.627,25.889C31.627,29.429 29.738,31.939 25.96,33.419C29.738,35.004 31.627,37.527 31.627,40.988L31.627,55.176ZM159.632,63.458L151.31,63.458L151.31,25.572C151.31,23.511 150.517,22.481 148.932,22.481C147.902,22.481 146.924,22.943 146,23.868L146,61.992L148.06,61.992L148.06,63.458L137.638,63.458L137.638,61.992L139.698,61.992L139.698,22.719L137.638,22.719L137.638,21.252L146,21.252L146,22.402C147.188,21.371 148.76,20.856 150.715,20.856C155.313,20.856 157.611,23.34 157.611,28.307L157.611,61.992L159.632,61.992L159.632,63.458ZM100.821,63.458L92.618,63.458L87.347,42.772L87.347,61.992L89.408,61.992L89.408,63.458L78.985,63.458L78.985,61.992L81.046,61.992L81.046,8.095L78.985,8.095L78.985,6.629L87.347,6.629L87.347,39.997L95.471,22.719L93.371,22.719L93.371,21.252L99.553,21.252L99.553,22.719L97.492,22.719L91.508,35.717L98.642,61.992L100.821,61.992L100.821,63.458ZM77.122,34.172L70.782,34.172L70.782,25.572C70.782,23.511 70.134,22.481 68.84,22.481C67.994,22.481 67.149,22.943 66.303,23.868L66.303,61.992L68.364,61.992L68.364,63.458L57.942,63.458L57.942,61.992L60.002,61.992L60.002,22.719L57.942,22.719L57.942,21.252L66.303,21.252L66.303,22.402C67.492,21.371 68.985,20.856 70.782,20.856C75.009,20.856 77.122,23.34 77.122,28.307L77.122,34.172ZM134.824,63.458L114.533,63.458L114.533,61.992L116.554,61.992L116.554,8.095L114.533,8.095L114.533,6.629L134.824,6.629L134.824,23.67L128.325,23.67L128.325,8.095L123.054,8.095L123.054,32.706L130.742,32.706L130.742,34.172L123.054,34.172L123.054,61.992L128.325,61.992L128.325,46.418L134.824,46.418L134.824,63.458ZM202.433,34.172L196.092,34.172L196.092,25.572C196.092,23.511 195.445,22.481 194.15,22.481C193.305,22.481 192.459,22.943 191.614,23.868L191.614,61.992L193.674,61.992L193.674,63.458L183.252,63.458L183.252,61.992L185.313,61.992L185.313,22.719L183.252,22.719L183.252,21.252L191.614,21.252L191.614,22.402C192.803,21.371 194.295,20.856 196.092,20.856C200.319,20.856 202.433,23.34 202.433,28.307L202.433,34.172ZM41.218,62.388C40.187,61.358 39.672,59.931 39.672,58.108L39.672,22.719L38.047,22.719L38.047,57.197C38.047,60.103 39.104,61.834 41.218,62.388ZM177.268,56.88L177.268,52.005L175.643,52.005L175.643,58.029C175.643,59.799 175.207,61.147 174.335,62.071C176.29,60.83 177.268,59.099 177.268,56.88ZM15.815,61.992L15.815,8.095L14.19,8.095L14.19,61.992L15.815,61.992ZM25.128,58.742L25.128,37.422C25.128,36.523 24.811,35.757 24.177,35.123C23.543,34.489 22.777,34.172 21.878,34.172L19.064,34.172L19.064,61.992L21.878,61.992C22.777,61.992 23.543,61.675 24.177,61.041C24.811,60.407 25.128,59.641 25.128,58.742ZM51.284,61.992L51.284,22.719L49.659,22.719L49.659,61.992L51.284,61.992ZM142.869,61.992L142.869,22.719L141.244,22.719L141.244,61.992L142.869,61.992ZM154.441,61.992L154.441,26.92C154.441,24.647 153.529,23.142 151.706,22.402C152.446,23.142 152.816,24.41 152.816,26.206L152.816,61.992L154.441,61.992ZM188.483,61.992L188.483,22.719L186.858,22.719L186.858,61.992L188.483,61.992ZM95.55,61.992L89.725,39.284L88.734,41.622L93.926,61.992L95.55,61.992ZM63.173,61.992L63.173,22.719L61.548,22.719L61.548,61.992L63.173,61.992ZM119.804,61.992L119.804,8.095L118.179,8.095L118.179,61.992L119.804,61.992ZM131.574,61.992L131.574,47.884L129.949,47.884L129.949,61.992L131.574,61.992ZM84.177,61.992L84.177,8.095L82.552,8.095L82.552,61.992L84.177,61.992ZM28.378,56.484L28.378,39.68C28.378,37.514 27.413,35.81 25.485,34.568C26.33,35.572 26.753,36.893 26.753,38.531L26.753,57.633C26.753,59.271 26.33,60.592 25.485,61.596C27.413,60.354 28.378,58.65 28.378,56.484ZM233.503,61.596C232.472,60.565 231.957,59.126 231.957,57.276L231.957,22.719L230.332,22.719L230.332,56.404C230.332,59.284 231.389,61.015 233.503,61.596ZM210.478,61.596C209.447,60.565 208.932,59.126 208.932,57.276L208.932,26.603C208.932,24.78 209.447,23.353 210.478,22.322C208.364,22.877 207.307,24.608 207.307,27.514L207.307,56.404C207.307,59.284 208.364,61.015 210.478,61.596ZM217.373,60.05L217.373,23.868C216.449,22.943 215.471,22.481 214.441,22.481C212.882,22.481 212.102,23.511 212.102,25.572L212.102,58.346C212.102,60.407 212.882,61.437 214.441,61.437C215.471,61.437 216.449,60.975 217.373,60.05ZM166.33,61.2C165.616,60.169 165.26,58.809 165.26,57.118L165.26,27.593C165.26,25.902 165.616,24.542 166.33,23.511C164.533,24.753 163.635,26.431 163.635,28.544L163.635,56.167C163.635,58.28 164.533,59.958 166.33,61.2ZM177.268,41.543L177.268,27.831C177.268,25.612 176.29,23.881 174.335,22.64C175.207,23.564 175.643,24.912 175.643,26.682L175.643,41.543L177.268,41.543ZM174.097,41.543L174.097,25.572C174.097,23.406 173.159,22.322 171.283,22.322C169.381,22.322 168.43,23.406 168.43,25.572L168.43,41.543L174.097,41.543ZM25.128,29.456L25.128,11.345C25.128,10.447 24.811,9.68 24.177,9.046C23.543,8.412 22.777,8.095 21.878,8.095L19.064,8.095L19.064,32.706L21.878,32.706C22.777,32.706 23.543,32.389 24.177,31.754C24.811,31.12 25.128,30.354 25.128,29.456ZM199.262,32.706L199.262,26.92C199.262,24.647 198.39,23.168 196.647,22.481C197.307,23.115 197.637,24.357 197.637,26.206L197.637,32.706L199.262,32.706ZM73.952,32.706L73.952,26.92C73.952,24.647 73.08,23.168 71.337,22.481C71.997,23.115 72.327,24.357 72.327,26.206L72.327,32.706L73.952,32.706ZM28.378,27.197L28.378,13.644C28.378,11.451 27.413,9.747 25.485,8.531C26.33,9.509 26.753,10.83 26.753,12.494L26.753,28.307C26.753,29.971 26.33,31.305 25.485,32.309C27.413,31.068 28.378,29.363 28.378,27.197ZM131.574,22.243L131.574,8.095L129.949,8.095L129.949,22.243L131.574,22.243Z" style="fill:url(#_Linear1);fill-rule:nonzero;"/>
    <defs>
        <linearGradient id="_Linear1" x1="0" y1="0" x2="1" y2="0" gradientUnits="userSpaceOnUse" gradientTransform="matrix(230.924,0,0,230.924,15.815,40)"><stop offset="0" style="stop-color:rgb(0,250,34);stop-opacity:1"/><stop offset="1" style="stop-color:rgb(187,253,69);stop-opacity:1"/></linearGradient>
    </defs>
</svg>
